<?xml version="1.0" encoding="UTF-8" standalone="no"?> <svg width="52" height="54" viewBox="0 0 52 54" fill="none" xmlns="http://www.w3.org/2000/svg">
<path fill-rule="evenodd" clip-rule="evenodd" d="M45.4996 15.625V36.75H42.2496V15.625H35.7496C33.0572 15.625 30.8746 13.4424 30.8746 10.75V4.25H12.9996C11.2047 4.25 9.74962 5.70507 9.74962 7.5V36.75H6.49962V7.5C6.49962 3.91015 9.40977 1 12.9996 1H30.8746L45.4996 15.625ZM13.4903 50.6907C13.2745 50.2337 13.1539 49.7481 13.1285 49.2339H15.6136C15.6581 49.4815 15.7501 49.7132 15.8897 49.929C16.0294 50.1385 16.2135 50.3226 16.442 50.4813C16.6705 50.6399 16.9403 50.7637 17.2513 50.8526C17.5624 50.9415 17.9083 50.9859 18.2892 50.9859C18.8224 50.9859 19.2699 50.9097 19.6317 50.7574C19.9999 50.605 20.276 50.3956 20.4601 50.129C20.6441 49.856 20.7362 49.5418 20.7362 49.1863C20.7362 48.7356 20.5711 48.3834 20.2411 48.1294C19.911 47.8692 19.4095 47.6597 18.7367 47.501L16.7276 47.0345C16.0548 46.8821 15.4708 46.6504 14.9757 46.3394C14.4806 46.0284 14.0997 45.6316 13.8331 45.1492C13.5665 44.6668 13.4332 44.0987 13.4332 43.4449C13.4332 42.6514 13.6395 41.9595 14.0521 41.3692C14.4647 40.7789 15.036 40.3218 15.766 39.9981C16.4959 39.6744 17.337 39.5125 18.2892 39.5125C19.2794 39.5125 20.1236 39.6775 20.8219 40.0076C21.5265 40.3377 22.0692 40.782 22.45 41.3406C22.8373 41.8929 23.0531 42.5054 23.0975 43.1783H20.66C20.6029 42.8672 20.4728 42.5879 20.2696 42.3404C20.0729 42.0928 19.8062 41.896 19.4698 41.75C19.1334 41.6041 18.7335 41.5311 18.2701 41.5311C17.5655 41.5311 17.0101 41.6961 16.6039 42.0262C16.204 42.3499 16.004 42.7657 16.004 43.2735C16.004 43.667 16.1595 43.9908 16.4706 44.2447C16.7816 44.4986 17.2196 44.689 17.7845 44.816L19.8031 45.2825C20.5077 45.4412 21.1202 45.6697 21.6407 45.9681C22.1612 46.2601 22.5675 46.6473 22.8595 47.1297C23.1515 47.6121 23.2975 48.2183 23.2975 48.9483C23.2975 49.7544 23.0943 50.4654 22.6881 51.0811C22.2882 51.6905 21.7042 52.1666 20.9361 52.5093C20.1744 52.8521 19.2445 53.0235 18.1463 53.0235C17.3211 53.0235 16.6007 52.9251 15.985 52.7283C15.3692 52.5315 14.8519 52.2586 14.433 51.9095C14.0204 51.554 13.7062 51.1478 13.4903 50.6907ZM3.40137 50.586C3.22363 50.1099 3.13477 49.6053 3.13477 49.0721H5.61987C5.63257 49.4021 5.71191 49.6941 5.85791 49.948C6.00391 50.1956 6.20386 50.3924 6.45776 50.5384C6.71167 50.678 7.00366 50.7479 7.33374 50.7479C7.94946 50.7479 8.40649 50.5701 8.70483 50.2146C9.00317 49.8592 9.15234 49.3545 9.15234 48.7007V39.7791H11.7231V48.6341C11.7231 50.0623 11.3359 51.1509 10.5615 51.9C9.79346 52.649 8.72705 53.0235 7.3623 53.0235C6.66406 53.0235 6.04834 52.9219 5.51514 52.7188C4.98828 52.5093 4.54712 52.2205 4.19165 51.8523C3.84253 51.4842 3.5791 51.0621 3.40137 50.586ZM32.9484 45.4349V47.1297C32.9484 47.9612 32.8215 48.6563 32.5676 49.2149C32.3137 49.7735 31.9646 50.1924 31.5202 50.4717C31.0759 50.7447 30.5681 50.8812 29.9968 50.8812C29.4191 50.8812 28.9082 50.7447 28.4638 50.4717C28.0258 50.1924 27.6799 49.7735 27.426 49.2149C27.1721 48.6563 27.0451 47.9612 27.0451 47.1297V45.4349C27.0451 44.597 27.1721 43.9019 27.426 43.3497C27.6799 42.7911 28.0258 42.3721 28.4638 42.0928C28.9082 41.8135 29.4191 41.6739 29.9968 41.6739C30.5681 41.6739 31.0759 41.8135 31.5202 42.0928C31.9646 42.3721 32.3137 42.7911 32.5676 43.3497C32.8215 43.9019 32.9484 44.597 32.9484 45.4349ZM35.5573 47.1202V45.4539C35.5573 44.2288 35.3352 43.1751 34.8908 42.2928C34.4465 41.4041 33.8085 40.7217 32.977 40.2457C32.1518 39.7696 31.1584 39.5315 29.9968 39.5315C28.8415 39.5315 27.8449 39.7696 27.007 40.2457C26.1755 40.7154 25.5375 41.3946 25.0932 42.2833C24.6489 43.1656 24.4267 44.2225 24.4267 45.4539V47.1202C24.4267 48.3389 24.6489 49.3926 25.0932 50.2813C25.5375 51.1636 26.1755 51.8428 27.007 52.3189C27.8449 52.7886 28.8415 53.0235 29.9968 53.0235C31.1584 53.0235 32.1518 52.7886 32.977 52.3189C33.8085 51.8428 34.4465 51.1636 34.8908 50.2813C35.3352 49.3926 35.5573 48.3389 35.5573 47.1202ZM39.7525 44.0828V52.7759H37.3245V39.7791H39.4764L45.1702 48.4246H45.275V39.7791H47.7125V52.7759H45.5796L39.8572 44.0828H39.7525Z" fill="url(#paint0_linear_801_1298)"/>
<path d="M45.4996 36.75V37.25H45.9996V36.75H45.4996ZM45.4996 15.625H45.9996V15.4179L45.8532 15.2714L45.4996 15.625ZM42.2496 36.75H41.7496V37.25H42.2496V36.75ZM42.2496 15.625H42.7496V15.125H42.2496V15.625ZM30.8746 4.25H31.3746V3.75H30.8746V4.25ZM9.74962 36.75V37.25H10.2496V36.75H9.74962ZM6.49962 36.75H5.99962V37.25H6.49962V36.75ZM30.8746 1L31.2282 0.646447L31.0817 0.5H30.8746V1ZM13.1285 49.2339V48.7339H12.6032L12.6291 49.2586L13.1285 49.2339ZM15.6136 49.2339L16.1058 49.1456L16.0319 48.7339H15.6136V49.2339ZM15.8897 49.929L15.4699 50.2007L15.4737 50.2064L15.8897 49.929ZM19.6317 50.7574L19.4405 50.2954L19.4377 50.2966L19.6317 50.7574ZM20.4601 50.129L20.8715 50.4131L20.8746 50.4085L20.4601 50.129ZM20.2411 48.1294L19.9315 48.5221L19.9362 48.5258L20.2411 48.1294ZM18.7367 47.501L18.8514 47.0144L18.8498 47.014L18.7367 47.501ZM16.7276 47.0345L16.8407 46.5474L16.838 46.5468L16.7276 47.0345ZM20.8219 40.0076L20.6082 40.4597L20.6098 40.4604L20.8219 40.0076ZM22.45 41.3406L22.0369 41.6223L22.0407 41.6277L22.45 41.3406ZM23.0975 43.1783V43.6783H23.6316L23.5964 43.1453L23.0975 43.1783ZM20.66 43.1783L20.1682 43.2686L20.2435 43.6783H20.66V43.1783ZM20.2696 42.3404L19.8782 42.6515L19.8831 42.6575L20.2696 42.3404ZM16.6039 42.0262L16.9185 42.4148L16.9192 42.4142L16.6039 42.0262ZM17.7845 44.816L17.8971 44.3288L17.8941 44.3281L17.7845 44.816ZM19.8031 45.2825L19.6905 45.7697L19.6932 45.7703L19.8031 45.2825ZM21.6407 45.9681L21.3921 46.4019L21.3961 46.4041L21.6407 45.9681ZM22.6881 51.0811L22.2707 50.8057L22.2701 50.8068L22.6881 51.0811ZM20.9361 52.5093L20.7324 52.0527L20.7309 52.0534L20.9361 52.5093ZM14.433 51.9095L14.1066 52.2883L14.1129 52.2936L14.433 51.9095ZM3.13477 49.0721V48.5721H2.63477V49.0721H3.13477ZM5.61987 49.0721L6.1195 49.0529L6.10101 48.5721H5.61987V49.0721ZM5.85791 49.948L5.42443 50.1973L5.42723 50.202L5.85791 49.948ZM6.45776 50.5384L6.20848 50.9719L6.2168 50.9765L6.45776 50.5384ZM9.15234 39.7791V39.2791H8.65234V39.7791H9.15234ZM11.7231 39.7791H12.2231V39.2791H11.7231V39.7791ZM10.5615 51.9L10.2139 51.5406L10.2124 51.542L10.5615 51.9ZM5.51514 52.7188L5.33039 53.1835L5.33714 53.186L5.51514 52.7188ZM4.19165 51.8523L3.82882 52.1964L3.83195 52.1996L4.19165 51.8523ZM31.5202 50.4717L31.7819 50.8978L31.7863 50.895L31.5202 50.4717ZM28.4638 50.4717L28.1949 50.8934L28.2021 50.8978L28.4638 50.4717ZM27.426 43.3497L27.8803 43.5585L27.8812 43.5566L27.426 43.3497ZM28.4638 42.0928L28.1977 41.6695L28.195 41.6712L28.4638 42.0928ZM32.5676 43.3497L32.1124 43.5566L32.1133 43.5585L32.5676 43.3497ZM34.8908 42.2928L34.4436 42.5164L34.4443 42.5177L34.8908 42.2928ZM32.977 40.2457L32.7271 40.6787L32.7286 40.6796L32.977 40.2457ZM27.007 40.2457L27.253 40.681L27.254 40.6804L27.007 40.2457ZM25.0932 42.2833L25.5398 42.5081L25.5404 42.5069L25.0932 42.2833ZM25.0932 50.2813L24.646 50.5049L24.6466 50.5062L25.0932 50.2813ZM27.007 52.3189L26.7586 52.7528L26.7625 52.755L27.007 52.3189ZM32.977 52.3189L33.2244 52.7534L33.2254 52.7528L32.977 52.3189ZM34.8908 50.2813L35.3374 50.5062L35.338 50.5049L34.8908 50.2813ZM39.7525 52.7759V53.2759H40.2525V52.7759H39.7525ZM39.7525 44.0828V43.5828H39.2525V44.0828H39.7525ZM37.3245 52.7759H36.8245V53.2759H37.3245V52.7759ZM37.3245 39.7791V39.2791H36.8245V39.7791H37.3245ZM39.4764 39.7791L39.8939 39.5041L39.7458 39.2791H39.4764V39.7791ZM45.1702 48.4246L44.7526 48.6996L44.9008 48.9246H45.1702V48.4246ZM45.275 48.4246V48.9246H45.775V48.4246H45.275ZM45.275 39.7791V39.2791H44.775V39.7791H45.275ZM47.7125 39.7791H48.2125V39.2791H47.7125V39.7791ZM47.7125 52.7759V53.2759H48.2125V52.7759H47.7125ZM45.5796 52.7759L45.162 53.0508L45.3102 53.2759H45.5796V52.7759ZM39.8572 44.0828L40.2749 43.8079L40.1267 43.5828H39.8572V44.0828ZM45.9996 36.75V15.625H44.9996V36.75H45.9996ZM42.2496 37.25H45.4996V36.25H42.2496V37.25ZM41.7496 15.625V36.75H42.7496V15.625H41.7496ZM35.7496 16.125H42.2496V15.125H35.7496V16.125ZM30.3746 10.75C30.3746 13.7185 32.7811 16.125 35.7496 16.125V15.125C33.3334 15.125 31.3746 13.1662 31.3746 10.75H30.3746ZM30.3746 4.25V10.75H31.3746V4.25H30.3746ZM12.9996 4.75H30.8746V3.75H12.9996V4.75ZM10.2496 7.5C10.2496 5.98122 11.4808 4.75 12.9996 4.75V3.75C10.9286 3.75 9.24962 5.42893 9.24962 7.5H10.2496ZM10.2496 36.75V7.5H9.24962V36.75H10.2496ZM6.49962 37.25H9.74962V36.25H6.49962V37.25ZM5.99962 7.5V36.75H6.99962V7.5H5.99962ZM12.9996 0.5C9.13363 0.5 5.99962 3.634 5.99962 7.5H6.99962C6.99962 4.18629 9.68591 1.5 12.9996 1.5V0.5ZM30.8746 0.5H12.9996V1.5H30.8746V0.5ZM45.8532 15.2714L31.2282 0.646447L30.5211 1.35355L45.1461 15.9786L45.8532 15.2714ZM12.6291 49.2586C12.6577 49.837 12.7939 50.3868 13.0382 50.9042L13.9425 50.4772C13.7551 50.0805 13.6501 49.6592 13.6279 49.2093L12.6291 49.2586ZM15.6136 48.7339H13.1285V49.7339H15.6136V48.7339ZM16.3095 49.6574C16.2051 49.496 16.1382 49.3264 16.1058 49.1456L15.1215 49.3223C15.1779 49.6366 15.2951 49.9304 15.47 50.2006L16.3095 49.6574ZM16.7272 50.0706C16.5448 49.9439 16.4071 49.8036 16.3058 49.6517L15.4737 50.2064C15.6517 50.4733 15.8821 50.7012 16.1568 50.8919L16.7272 50.0706ZM17.3887 50.3718C17.122 50.2956 16.9039 50.1933 16.7272 50.0706L16.1568 50.8919C16.4371 51.0866 16.7585 51.2318 17.114 51.3334L17.3887 50.3718ZM18.2892 50.4859C17.9468 50.4859 17.648 50.4459 17.3887 50.3718L17.114 51.3334C17.4767 51.437 17.8698 51.4859 18.2892 51.4859V50.4859ZM19.4377 50.2966C19.155 50.4156 18.7782 50.4859 18.2892 50.4859V51.4859C18.8666 51.4859 19.3847 51.4039 19.8257 51.2182L19.4377 50.2966ZM20.0486 49.8449C19.9307 50.0157 19.7402 50.1714 19.4405 50.2954L19.8229 51.2194C20.2595 51.0387 20.6213 50.7754 20.8715 50.4131L20.0486 49.8449ZM20.2362 49.1863C20.2362 49.4505 20.1694 49.6657 20.0455 49.8494L20.8746 50.4085C21.1189 50.0463 21.2362 49.6331 21.2362 49.1863H20.2362ZM19.9362 48.5258C20.132 48.6764 20.2362 48.8761 20.2362 49.1863H21.2362C21.2362 48.5951 21.0103 48.0903 20.5459 47.7331L19.9362 48.5258ZM18.6219 47.9877C19.2639 48.1391 19.6841 48.327 19.9315 48.5221L20.5506 47.7368C20.1379 47.4114 19.5551 47.1803 18.8514 47.0144L18.6219 47.9877ZM16.6145 47.5215L18.6236 47.9881L18.8498 47.014L16.8407 46.5474L16.6145 47.5215ZM14.7097 46.7628C15.2604 47.1087 15.8989 47.3595 16.6172 47.5221L16.838 46.5468C16.2106 46.4048 15.6812 46.1921 15.2417 45.916L14.7097 46.7628ZM13.3955 45.3911C13.7055 45.9521 14.1474 46.4096 14.7097 46.7628L15.2417 45.916C14.8137 45.6472 14.4939 45.3112 14.2707 44.9074L13.3955 45.3911ZM12.9332 43.4449C12.9332 44.1675 13.081 44.8219 13.3955 45.3911L14.2707 44.9074C14.052 44.5117 13.9332 44.0299 13.9332 43.4449H12.9332ZM13.6423 41.0828C13.165 41.7656 12.9332 42.5599 12.9332 43.4449H13.9332C13.9332 42.743 14.114 42.1535 14.4619 41.6556L13.6423 41.0828ZM15.5633 39.541C14.7593 39.8976 14.1126 40.4098 13.6423 41.0828L14.4619 41.6556C14.8168 41.1479 15.3127 40.7461 15.9687 40.4552L15.5633 39.541ZM18.2892 39.0125C17.2804 39.0125 16.3681 39.1841 15.5633 39.541L15.9687 40.4552C16.6238 40.1646 17.3936 40.0125 18.2892 40.0125V39.0125ZM21.0356 39.5556C20.2544 39.1863 19.3332 39.0125 18.2892 39.0125V40.0125C19.2256 40.0125 19.9928 40.1688 20.6082 40.4597L21.0356 39.5556ZM22.8632 41.059C22.4246 40.4158 21.8073 39.9171 21.034 39.5548L20.6098 40.4604C21.2457 40.7583 21.7137 41.1483 22.0369 41.6223L22.8632 41.059ZM23.5964 43.1453C23.546 42.3812 23.2992 41.6807 22.8594 41.0536L22.0407 41.6277C22.3753 42.105 22.5602 42.6297 22.5986 43.2112L23.5964 43.1453ZM20.66 43.6783H23.0975V42.6783H20.66V43.6783ZM19.8831 42.6575C20.0332 42.8405 20.1266 43.042 20.1682 43.2686L21.1518 43.0879C21.0792 42.6925 20.9123 42.3354 20.6562 42.0232L19.8831 42.6575ZM19.2708 42.2087C19.544 42.3273 19.7401 42.4777 19.8782 42.6515L20.661 42.0293C20.4056 41.7079 20.0685 41.4648 19.6689 41.2914L19.2708 42.2087ZM18.2701 42.0311C18.6824 42.0311 19.0114 42.0962 19.2708 42.2087L19.6689 41.2914C19.2554 41.1119 18.7846 41.0311 18.2701 41.0311V42.0311ZM16.9192 42.4142C17.2097 42.1782 17.6406 42.0311 18.2701 42.0311V41.0311C17.4904 41.0311 16.8105 41.214 16.2886 41.6381L16.9192 42.4142ZM16.504 43.2735C16.504 42.9189 16.634 42.6451 16.9185 42.4148L16.2893 41.6376C15.7739 42.0548 15.504 42.6125 15.504 43.2735H16.504ZM16.7867 43.8573C16.5893 43.6962 16.504 43.5134 16.504 43.2735H15.504C15.504 43.8207 15.7297 44.2854 16.1544 44.632L16.7867 43.8573ZM17.8941 44.3281C17.3738 44.2112 17.0171 44.0454 16.7867 43.8573L16.1544 44.632C16.5461 44.9518 17.0653 45.1668 17.6749 45.3038L17.8941 44.3281ZM19.9157 44.7954L17.8971 44.3288L17.6719 45.3031L19.6905 45.7697L19.9157 44.7954ZM21.8894 45.5343C21.3178 45.2067 20.6566 44.9622 19.9129 44.7947L19.6932 45.7703C20.3587 45.9202 20.9227 46.1328 21.3921 46.4019L21.8894 45.5343ZM23.2872 46.8708C22.9479 46.3101 22.4766 45.8637 21.8853 45.532L21.3961 46.4041C21.8458 46.6564 22.1871 46.9844 22.4317 47.3886L23.2872 46.8708ZM23.7975 48.9483C23.7975 48.1534 23.6385 47.4511 23.2872 46.8708L22.4317 47.3886C22.6644 47.7731 22.7975 48.2832 22.7975 48.9483H23.7975ZM23.1054 51.3565C23.5706 50.6515 23.7975 49.8429 23.7975 48.9483H22.7975C22.7975 49.666 22.6181 50.2793 22.2707 50.8057L23.1054 51.3565ZM21.1399 52.9659C21.9816 52.5903 22.646 52.0565 23.1061 51.3554L22.2701 50.8068C21.9304 51.3244 21.4268 51.7428 20.7324 52.0527L21.1399 52.9659ZM18.1463 53.5235C19.294 53.5235 20.2982 53.3447 21.1413 52.9653L20.7309 52.0534C20.0506 52.3595 19.195 52.5235 18.1463 52.5235V53.5235ZM15.8328 53.2046C16.5091 53.4207 17.283 53.5235 18.1463 53.5235V52.5235C17.3592 52.5235 16.6923 52.4295 16.1372 52.2521L15.8328 53.2046ZM14.1129 52.2936C14.5896 52.6908 15.1668 52.9918 15.8328 53.2046L16.1372 52.2521C15.5717 52.0713 15.1142 51.8263 14.7531 51.5254L14.1129 52.2936ZM13.0382 50.9042C13.2862 51.4293 13.6451 51.8907 14.1066 52.2883L14.7593 51.5307C14.3956 51.2173 14.1261 50.8662 13.9425 50.4772L13.0382 50.9042ZM2.63477 49.0721C2.63477 49.662 2.73331 50.2261 2.93295 50.7609L3.86979 50.4111C3.71395 49.9937 3.63477 49.5485 3.63477 49.0721H2.63477ZM5.61987 48.5721H3.13477V49.5721H5.61987V48.5721ZM6.29136 49.6988C6.19064 49.5236 6.12949 49.3125 6.1195 49.0529L5.12024 49.0913C5.13565 49.4918 5.23319 49.8646 5.42446 50.1973L6.29136 49.6988ZM6.707 50.1049C6.52658 50.0012 6.38978 49.8656 6.28859 49.6941L5.42723 50.202C5.61803 50.5256 5.88113 50.7836 6.20853 50.9718L6.707 50.1049ZM7.33374 50.2479C7.07605 50.2479 6.86906 50.194 6.69872 50.1003L6.2168 50.9765C6.55428 51.1621 6.93128 51.2479 7.33374 51.2479V50.2479ZM8.32185 49.8932C8.14724 50.1013 7.85312 50.2479 7.33374 50.2479V51.2479C8.04581 51.2479 8.66575 51.039 9.08782 50.5361L8.32185 49.8932ZM8.65234 48.7007C8.65234 49.2844 8.51886 49.6585 8.32185 49.8932L9.08782 50.5361C9.48749 50.0599 9.65234 49.4247 9.65234 48.7007H8.65234ZM8.65234 39.7791V48.7007H9.65234V39.7791H8.65234ZM11.7231 39.2791H9.15234V40.2791H11.7231V39.2791ZM12.2231 48.6341V39.7791H11.2231V48.6341H12.2231ZM10.9091 52.2593C11.8096 51.3884 12.2231 50.1519 12.2231 48.6341H11.2231C11.2231 49.9727 10.8622 50.9135 10.2139 51.5406L10.9091 52.2593ZM7.3623 53.5235C8.82036 53.5235 10.0256 53.121 10.9106 52.2579L10.2124 51.542C9.56133 52.177 8.63374 52.5235 7.3623 52.5235V53.5235ZM5.33714 53.186C5.93832 53.4151 6.61641 53.5235 7.3623 53.5235V52.5235C6.71171 52.5235 6.15835 52.4288 5.69313 52.2516L5.33714 53.186ZM3.83195 52.1996C4.24184 52.6242 4.74472 52.9506 5.33041 53.1834L5.69987 52.2542C5.23184 52.0681 4.8524 51.8168 4.55135 51.505L3.83195 52.1996ZM2.93295 50.7609C3.13413 51.2997 3.43344 51.7794 3.82884 52.1964L4.55446 51.5083C4.25162 51.1889 4.02407 50.8244 3.86979 50.4111L2.93295 50.7609ZM33.4484 47.1297V45.4349H32.4484V47.1297H33.4484ZM33.0228 49.4218C33.3147 48.7795 33.4484 48.0087 33.4484 47.1297H32.4484C32.4484 47.9138 32.3282 48.5331 32.1124 49.008L33.0228 49.4218ZM31.7863 50.895C32.3267 50.5553 32.7354 50.0541 33.0228 49.4218L32.1124 49.008C31.892 49.4929 31.6024 49.8295 31.2541 50.0484L31.7863 50.895ZM29.9968 51.3812C30.6513 51.3812 31.2514 51.2236 31.7819 50.8978L31.2585 50.0457C30.9003 50.2657 30.4848 50.3812 29.9968 50.3812V51.3812ZM28.2021 50.8978C28.7335 51.2242 29.337 51.3812 29.9968 51.3812V50.3812C29.5013 50.3812 29.0828 50.2652 28.7255 50.0457L28.2021 50.8978ZM26.9708 49.4218C27.2574 50.0522 27.6616 50.5532 28.195 50.8933L28.7327 50.0502C28.3901 49.8317 28.1024 49.4947 27.8812 49.008L26.9708 49.4218ZM26.5451 47.1297C26.5451 48.0087 26.6788 48.7795 26.9708 49.4218L27.8812 49.008C27.6653 48.5331 27.5451 47.9138 27.5451 47.1297H26.5451ZM26.5451 45.4349V47.1297H27.5451V45.4349H26.5451ZM26.9717 43.1408C26.6785 43.7784 26.5451 44.5505 26.5451 45.4349H27.5451C27.5451 44.6434 27.6656 44.0254 27.8803 43.5585L26.9717 43.1408ZM28.195 41.6712C27.6616 42.0114 27.2574 42.5123 26.9708 43.1428L27.8812 43.5566C28.1024 43.0698 28.3901 42.7329 28.7327 42.5144L28.195 41.6712ZM29.9968 41.1739C29.3348 41.1739 28.7297 41.3351 28.1977 41.6695L28.7299 42.5161C29.0866 42.2919 29.5035 42.1739 29.9968 42.1739V41.1739ZM31.7863 41.6695C31.2552 41.3357 30.6536 41.1739 29.9968 41.1739V42.1739C30.4826 42.1739 30.8965 42.2914 31.2541 42.5161L31.7863 41.6695ZM33.0228 43.1428C32.7354 42.5105 32.3267 42.0092 31.7863 41.6695L31.2541 42.5161C31.6024 42.735 31.892 43.0717 32.1124 43.5566L33.0228 43.1428ZM33.4484 45.4349C33.4484 44.5505 33.315 43.7784 33.0219 43.1408L32.1133 43.5585C32.3279 44.0254 32.4484 44.6434 32.4484 45.4349H33.4484ZM35.0573 45.4539V47.1202H36.0573V45.4539H35.0573ZM34.4443 42.5177C34.846 43.3155 35.0573 44.2885 35.0573 45.4539H36.0573C36.0573 44.1691 35.8243 43.0347 35.3374 42.0679L34.4443 42.5177ZM32.7286 40.6796C33.4713 41.1048 34.0416 41.7124 34.4436 42.5164L35.338 42.0692C34.8513 41.0958 34.1458 40.3387 33.2254 39.8117L32.7286 40.6796ZM29.9968 40.0315C31.0898 40.0315 31.993 40.2552 32.7271 40.6787L33.2269 39.8126C32.3107 39.284 31.227 39.0315 29.9968 39.0315V40.0315ZM27.254 40.6804C28.003 40.2549 28.9109 40.0315 29.9968 40.0315V39.0315C28.7721 39.0315 27.6869 39.2843 26.76 39.8109L27.254 40.6804ZM25.5404 42.5069C25.9421 41.7034 26.5117 41.0997 27.253 40.681L26.7611 39.8103C25.8393 40.3311 25.133 41.0857 24.646 42.0596L25.5404 42.5069ZM24.9267 45.4539C24.9267 44.2817 25.1382 43.3056 25.5398 42.5081L24.6466 42.0584C24.1596 43.0255 23.9267 44.1632 23.9267 45.4539H24.9267ZM24.9267 47.1202V45.4539H23.9267V47.1202H24.9267ZM25.5404 50.0577C25.1378 49.2524 24.9267 48.2786 24.9267 47.1202H23.9267C23.9267 48.3992 24.16 49.5328 24.646 50.5049L25.5404 50.0577ZM27.2555 51.885C26.5118 51.4592 25.9415 50.854 25.5398 50.0564L24.6466 50.5062C25.1336 51.4732 25.8392 52.2264 26.7586 52.7528L27.2555 51.885ZM29.9968 52.5235C28.9098 52.5235 28.001 52.3029 27.2515 51.8828L26.7625 52.755C27.6889 53.2744 28.7732 53.5235 29.9968 53.5235V52.5235ZM32.7297 51.8844C31.995 52.3026 31.0909 52.5235 29.9968 52.5235V53.5235C31.2259 53.5235 32.3086 53.2747 33.2244 52.7534L32.7297 51.8844ZM34.4443 50.0564C34.0426 50.854 33.4722 51.4592 32.7286 51.885L33.2254 52.7528C34.1448 52.2264 34.8504 51.4732 35.3374 50.5062L34.4443 50.0564ZM35.0573 47.1202C35.0573 48.2786 34.8462 49.2524 34.4436 50.0577L35.338 50.5049C35.8241 49.5328 36.0573 48.3992 36.0573 47.1202H35.0573ZM40.2525 52.7759V44.0828H39.2525V52.7759H40.2525ZM37.3245 53.2759H39.7525V52.2759H37.3245V53.2759ZM36.8245 39.7791V52.7759H37.8245V39.7791H36.8245ZM39.4764 39.2791H37.3245V40.2791H39.4764V39.2791ZM45.5878 48.1496L39.8939 39.5041L39.0588 40.0541L44.7526 48.6996L45.5878 48.1496ZM45.275 47.9246H45.1702V48.9246H45.275V47.9246ZM44.775 39.7791V48.4246H45.775V39.7791H44.775ZM47.7125 39.2791H45.275V40.2791H47.7125V39.2791ZM48.2125 52.7759V39.7791H47.2125V52.7759H48.2125ZM45.5796 53.2759H47.7125V52.2759H45.5796V53.2759ZM39.4396 44.3577L45.162 53.0508L45.9973 52.501L40.2749 43.8079L39.4396 44.3577ZM39.7525 44.5828H39.8572V43.5828H39.7525V44.5828Z" fill="url(#paint1_linear_801_1298)"/>
<defs>
<linearGradient id="paint0_linear_801_1298" x1="25.4236" y1="1" x2="25.4236" y2="53.0235" gradientUnits="userSpaceOnUse">
<stop stop-color="#88C6FF"/>
<stop offset="1" stop-color="#0085FF"/>
</linearGradient>
<linearGradient id="paint1_linear_801_1298" x1="25.4236" y1="1" x2="25.4236" y2="53.0235" gradientUnits="userSpaceOnUse">
<stop stop-color="#88C6FF"/>
<stop offset="1" stop-color="#0085FF"/>
</linearGradient>
</defs>
</svg>
